<?xml version="1.0" encoding="utf-8"?>
<svg viewBox="0 0 48 48" fill="none" xmlns="http://www.w3.org/2000/svg">
  <mask id="mask0_2524_13606" style="mask-type:alpha" maskUnits="userSpaceOnUse" x="10" y="6" width="29" height="35">
    <path d="M36.232 7.8999H12.7218C12.1808 7.8999 11.7422 8.33848 11.7422 8.87949V38.2672C11.7422 38.8083 12.1808 39.2468 12.7218 39.2468H36.232C36.773 39.2468 37.2116 38.8083 37.2116 38.2672V8.87949C37.2116 8.33848 36.773 7.8999 36.232 7.8999Z" fill="white"/>
    <path fill-rule="evenodd" clip-rule="evenodd" d="M12.9177 9.07539V38.0713H36.036V9.07539H12.9177ZM10.5667 8.87947C10.5667 7.68924 11.5315 6.72437 12.7218 6.72437H36.232C37.4222 6.72437 38.3871 7.68924 38.3871 8.87947V38.2672C38.3871 39.4575 37.4222 40.4223 36.232 40.4223H12.7218C11.5315 40.4223 10.5667 39.4575 10.5667 38.2672V8.87947Z" fill="#222222"/>
  </mask>
  <path d="M19.592 35.2654C28.2482 35.2654 35.2655 28.2482 35.2655 19.592C35.2655 10.9357 28.2482 3.91846 19.592 3.91846C10.9357 3.91846 3.91846 10.9357 3.91846 19.592C3.91846 28.2482 10.9357 35.2654 19.592 35.2654Z" fill="#F2F2F2"/>
  <g mask="url(#mask0_2524_13606)">
    <path d="M36.232 7.8999H12.7218C12.1808 7.8999 11.7422 8.33848 11.7422 8.87949V38.2672C11.7422 38.8083 12.1808 39.2468 12.7218 39.2468H36.232C36.773 39.2468 37.2116 38.8083 37.2116 38.2672V8.87949C37.2116 8.33848 36.773 7.8999 36.232 7.8999Z" fill="white"/>
    <path fill-rule="evenodd" clip-rule="evenodd" d="M12.7218 8.38975C12.4513 8.38975 12.232 8.60904 12.232 8.87954V38.2673C12.232 38.5378 12.4513 38.7571 12.7218 38.7571H36.232C36.5025 38.7571 36.7218 38.5378 36.7218 38.2673V8.87954C36.7218 8.60904 36.5025 8.38975 36.232 8.38975H12.7218ZM11.2524 8.87954C11.2524 8.06802 11.9103 7.41016 12.7218 7.41016H36.232C37.0436 7.41016 37.7014 8.06802 37.7014 8.87954V38.2673C37.7014 39.0788 37.0436 39.7367 36.232 39.7367H12.7218C11.9103 39.7367 11.2524 39.0788 11.2524 38.2673V8.87954Z" fill="#222222"/>
  </g>
  <path d="M21.0759 18.2135V18.2161C21.0712 18.7302 20.8618 19.2222 20.4926 19.5838C20.1234 19.9457 19.6243 20.1477 19.1048 20.1447H19.1022C18.7102 20.1445 18.3272 20.0284 18.0022 19.8114C17.6773 19.5945 17.4249 19.2866 17.2768 18.9272C17.1288 18.5679 17.0916 18.1731 17.1698 17.7931C17.2482 17.4128 17.4386 17.0639 17.7171 16.7909C17.9957 16.518 18.3501 16.3333 18.7351 16.2607C19.1202 16.1881 19.5183 16.2311 19.8786 16.3841C20.2389 16.537 20.5449 16.7929 20.7579 17.1187C20.9709 17.4444 21.0815 17.8255 21.0759 18.2135Z" fill="#EF3829" stroke="#222222"/>
  <path d="M24.0377 12.4053L21.2532 15.1779L21.9503 15.8701L24.7347 13.0975L24.0377 12.4053Z" fill="#222222"/>
  <path d="M20.1026 11.8184H19.1174V14.7571H20.1026V11.8184Z" fill="#222222"/>
  <path d="M25.4564 16.9517H22.501V17.9313H25.4564V16.9517Z" fill="#222222"/>
  <path fill-rule="evenodd" clip-rule="evenodd" d="M15.6606 29.9407C15.6606 29.6702 15.8799 29.4509 16.1504 29.4509H26.926C27.1965 29.4509 27.4157 29.6702 27.4157 29.9407C27.4157 30.2112 27.1965 30.4305 26.926 30.4305H16.1504C15.8799 30.4305 15.6606 30.2112 15.6606 29.9407Z" fill="#222222"/>
  <path fill-rule="evenodd" clip-rule="evenodd" d="M28.3953 29.9407C28.3953 29.6702 28.6146 29.4509 28.8851 29.4509H32.8034C33.0739 29.4509 33.2932 29.6702 33.2932 29.9407C33.2932 30.2112 33.0739 30.4305 32.8034 30.4305H28.8851C28.6146 30.4305 28.3953 30.2112 28.3953 29.9407Z" fill="#222222"/>
  <path fill-rule="evenodd" clip-rule="evenodd" d="M15.6606 24.0633C15.6606 23.7928 15.8799 23.5735 16.1504 23.5735H26.926C27.1965 23.5735 27.4157 23.7928 27.4157 24.0633C27.4157 24.3338 27.1965 24.5531 26.926 24.5531H16.1504C15.8799 24.5531 15.6606 24.3338 15.6606 24.0633Z" fill="#222222"/>
  <path fill-rule="evenodd" clip-rule="evenodd" d="M28.3953 24.0633C28.3953 23.7928 28.6146 23.5735 28.8851 23.5735H32.8034C33.0739 23.5735 33.2932 23.7928 33.2932 24.0633C33.2932 24.3338 33.0739 24.5531 32.8034 24.5531H28.8851C28.6146 24.5531 28.3953 24.3338 28.3953 24.0633Z" fill="#222222"/>
  <path fill-rule="evenodd" clip-rule="evenodd" d="M15.6606 27.002C15.6606 26.7315 15.8799 26.5122 16.1504 26.5122H26.926C27.1965 26.5122 27.4157 26.7315 27.4157 27.002C27.4157 27.2725 27.1965 27.4918 26.926 27.4918H16.1504C15.8799 27.4918 15.6606 27.2725 15.6606 27.002Z" fill="#222222"/>
  <path fill-rule="evenodd" clip-rule="evenodd" d="M28.3953 27.002C28.3953 26.7315 28.6146 26.5122 28.8851 26.5122H32.8034C33.0739 26.5122 33.2932 26.7315 33.2932 27.002C33.2932 27.2725 33.0739 27.4918 32.8034 27.4918H28.8851C28.6146 27.4918 28.3953 27.2725 28.3953 27.002Z" fill="#222222"/>
  <path d="M16.1504 35.3398V33.3807C16.1504 33.1102 16.3697 32.8908 16.6403 32.8906L32.6075 32.8801C32.878 32.8799 33.0973 33.0991 33.0973 33.3696V35.3287C33.0973 35.5993 32.878 35.8187 32.6075 35.8188L16.6403 35.8293C16.3697 35.8295 16.1504 35.6103 16.1504 35.3398Z" fill="#EF3829"/>
  <path fill-rule="evenodd" clip-rule="evenodd" d="M32.6076 33.37L16.6407 33.3805L16.6402 35.3395L32.6073 35.3291L32.6076 33.37ZM32.6073 32.3904C33.1484 32.39 33.5872 32.8285 33.5872 33.3697V35.3288C33.5872 35.8696 33.1488 36.3084 32.6079 36.3086M32.6079 36.3086L16.6407 36.3191C16.6407 36.3191 16.6407 36.3191 16.6407 36.3191C16.0995 36.3195 15.6606 35.8811 15.6606 35.3398V33.3807C15.6606 32.8398 16.0992 32.4013 16.64 32.4009L32.6073 32.3904C32.6073 32.3904 32.6073 32.3904 32.6073 32.3904" fill="#222222"/>
</svg>